<?xml version="1.0" encoding="UTF-8"?>
<svg width="40px" height="40px" viewBox="0 0 40 40" version="1.1" xmlns="http://www.w3.org/2000/svg" xmlns:xlink="http://www.w3.org/1999/xlink">
    <!-- Generator: Sketch 52.2 (67145) - http://www.bohemiancoding.com/sketch -->
    <title>icons8-github</title>
    <desc>Created with Sketch.</desc>
    <g id="Page-1" stroke="none" stroke-width="1" fill="none" fill-rule="evenodd">
        <g id="Landing-page-Ninja-Fund" transform="translate(-918.000000, -1648.000000)" fill="#000000" fill-rule="nonzero">
            <g id="icons8-github" transform="translate(918.000000, 1648.000000)">
                <path d="M20,0 C8.96637826,0 0,8.96637826 0,20 C0,31.0336217 8.96637826,40 20,40 C31.0336217,40 40,31.0336217 40,20 C40,8.96637826 31.0336217,0 20,0 Z M20,1.73913043 C30.0933348,1.73913043 38.2608696,9.90666522 38.2608696,20 C38.2608696,20.0620617 38.2563904,20.123207 38.2557748,20.1851226 C37.6995887,20.1337852 37.0569635,20.0850226 36.2398096,20.0560461 C35.0844026,20.0150748 33.6280513,20.0269452 31.9769026,20.1086957 C32.0381322,19.6823052 32.0810478,19.249893 32.0822009,18.8060461 C32.1664009,17.17768 31.6195835,15.6543165 30.7302991,14.3087635 C30.9451417,13.566393 31.1971713,12.6219287 31.2601904,11.5506113 C31.3320165,10.3295 31.2266078,8.97544783 30.2462635,8.06046174 L29.9949052,7.82608696 L29.6518339,7.82608696 C27.3187296,7.82608696 25.7217591,8.8027913 24.7452443,9.57710609 C23.3352426,9.03132348 21.7497565,8.69565217 20,8.69565217 C18.2403191,8.69565217 16.639587,9.03601391 15.1715357,9.58050261 C14.1955748,8.80581826 12.5972043,7.82608696 10.2615487,7.82608696 L9.92017652,7.82608696 L9.66881826,8.05876348 C8.71387478,8.94549652 8.62589391,10.2623991 8.68546174,11.4775817 C8.73799217,12.5491357 8.97541913,13.5236017 9.18648087,14.3019704 C8.28216435,15.6737913 7.73947043,17.2365374 7.73947043,18.7822687 C7.73947043,19.2271626 7.78084261,19.6609313 7.84137217,20.0883148 C6.27114548,20.0154852 4.87139096,20.0014504 3.76019026,20.0407609 C2.94305591,20.0696678 2.30038452,20.1180113 1.74422557,20.1698365 C1.74370678,20.1130191 1.73913043,20.0569409 1.73913043,20 C1.73913043,9.90666522 9.90666522,1.73913043 20,1.73913043 Z M10.7795513,9.67900783 C12.5339713,9.84525478 13.8539087,10.6286713 14.4650139,11.1718748 L14.8726226,11.5319296 L15.37534,11.326427 C16.7505148,10.7601783 18.2843339,10.4347826 20,10.4347826 C21.7156661,10.4347826 23.249907,10.7618052 24.52106,11.3179348 L25.0305704,11.54212 L25.4466713,11.1718748 C26.0579852,10.6284852 27.38016,9.84482957 29.1355296,9.67900783 C29.3689183,10.0659487 29.571727,10.616233 29.5227583,11.4487096 C29.4641496,12.4449887 29.1976557,13.5301374 28.9962635,14.1745922 L28.8654887,14.5940896 L29.12534,14.9490487 C29.985753,16.12234 30.424453,17.3921191 30.3498643,18.7347148 L30.3481661,18.7584922 L30.3481661,18.7822687 C30.3481661,20.9522296 29.5667652,22.6889904 27.9025139,23.9758835 C26.2383026,25.2627817 23.6110113,26.0869565 19.9133835,26.0869565 C16.2157548,26.0869565 13.5868061,25.2627757 11.9225548,23.9758835 C10.2583017,22.6889904 9.47860087,20.9522296 9.47860087,18.7822687 C9.47860087,17.5086113 9.9385287,16.1074774 10.7880435,14.9490487 L11.0427991,14.6025817 L10.9205165,14.1898774 C10.7190139,13.5047687 10.4720217,12.3948722 10.4228939,11.3926626 C10.382033,10.5590783 10.5793226,10.0321974 10.7795513,9.67900783 Z M5.9867527,20.888247 C6.60126739,20.8960957 7.30561739,20.9292661 8.01120957,20.9646739 C8.07862522,21.2358017 8.15549739,21.50252 8.24898087,21.7629078 C5.37301913,21.8235583 3.22150513,22.11276 1.89538043,22.3607339 C1.83931026,21.925647 1.7946507,21.4869748 1.76970104,21.0427991 C2.74974417,20.949793 4.13130191,20.8645504 5.9867527,20.888247 Z M34.013247,20.9018339 C35.8674148,20.8782896 37.2484591,20.9636139 38.2286009,21.0563861 C38.2036817,21.4941983 38.1597817,21.9266643 38.1046191,22.3556383 C36.7311043,22.1036609 34.5214557,21.8145113 31.5709922,21.7680026 C31.6625609,21.5127626 31.7388061,21.2506252 31.805367,20.9850539 C32.5837313,20.943333 33.3430991,20.9103443 34.013247,20.9018339 Z M8.61922522,22.6256791 C9.13812957,23.6655017 9.87957913,24.5939296 10.8593748,25.3515626 C12.1989783,26.3874183 13.9405417,27.1111635 16.0665757,27.4983017 C15.7884339,27.7840852 15.5354609,28.0979087 15.3108017,28.4290078 L15.2581522,28.3831522 C15.2629348,28.3776739 14.8258696,28.5964157 14.1728939,28.6548913 C13.5199183,28.7133687 12.7144478,28.6956522 12.0006791,28.6956522 C10.9354617,28.6956522 10.4662696,28.1923565 9.71637217,27.2758157 C9.30111565,26.7161391 8.79487043,26.2628965 8.3033287,25.9188183 C7.80001826,25.5665 7.37066,25.3178339 6.83933426,25.22928 L6.7680027,25.2173913 L6.69497287,25.2173913 C6.28917574,25.2173913 5.89650739,25.2467739 5.5298913,25.6657609 C5.34658322,25.8752557 5.22024087,26.2630965 5.30230974,26.5913722 C5.38437843,26.9196478 5.59204896,27.1213748 5.77785322,27.2452443 C6.96630783,28.0375478 7.17634348,29.6056617 7.92119565,31.00034 C8.61678087,32.3863609 10.117967,33.0434783 11.6525139,33.0434783 L13.9130435,33.0434783 L13.9130435,37.2197687 C7.79809652,35.0613348 3.18667783,29.7431417 2.02785322,23.2201087 C3.35907287,22.9693704 5.58829452,22.66792 8.61922522,22.6256791 Z M31.2024452,22.632473 C34.3004678,22.6589913 36.5922174,22.960053 37.9738452,23.2150139 C36.8165626,29.7404383 32.2035409,35.0607565 26.0869565,37.2197687 L26.0869565,32.6953122 C26.0869565,31.317427 25.6344713,29.7980104 24.847147,28.5309104 C24.6081061,28.1462043 24.3269087,27.7823791 24.013247,27.4558426 C26.0264809,27.0581217 27.6803165,26.3468009 28.9673913,25.3515626 C29.9450643,24.5955713 30.6848591,23.6699339 31.2024452,22.632473 Z M18.8688861,27.9127035 L21.3043478,27.9127035 C22.0111487,27.9127035 22.7655852,28.476 23.3695652,29.4480296 C23.9735452,30.42006 24.3478261,31.7253713 24.3478261,32.6953122 L24.3478261,37.7377722 C22.9542678,38.0775948 21.4989478,38.2608696 20,38.2608696 C18.5010522,38.2608696 17.0457322,38.0775948 15.6521739,37.7377722 L15.6521739,32.6953122 C15.6521739,31.7468426 16.0589809,30.4446148 16.7034643,29.4684104 C17.3479487,28.4922061 18.1620852,27.9127035 18.8688861,27.9127035 Z M8.96399478,28.9402174 C9.71684174,29.7210939 10.6282826,30.4347826 12.0006791,30.4347826 C12.6782157,30.4347826 13.5238991,30.4591939 14.3274452,30.3872278 C14.3303026,30.3869722 14.33308,30.3857861 14.3359374,30.3855296 C14.2300696,30.6898791 14.1510817,30.9961122 14.0845791,31.3043478 L11.6525139,31.3043478 C10.5800496,31.3043478 9.8224087,30.9168957 9.47350522,30.2190896 L9.46671217,30.2072009 L9.46161652,30.1970104 C9.31865826,29.9314704 9.13099565,29.400513 8.96399478,28.9402174 Z" id="Shape"></path>
            </g>
        </g>
    </g>
</svg>