<?xml version="1.0" encoding="UTF-8"?>
<svg width="90px" height="33px" viewBox="0 0 90 33" version="1.1" xmlns="http://www.w3.org/2000/svg" xmlns:xlink="http://www.w3.org/1999/xlink">
    <!-- Generator: Sketch 50.2 (55047) - http://www.bohemiancoding.com/sketch -->
    <title>Group 14 Copy 2</title>
    <desc>Created with Sketch.</desc>
    <defs></defs>
    <g id="Page-1" stroke="none" stroke-width="1" fill="none" fill-rule="evenodd">
        <g id="Landing-page-Ninja-Fund" transform="translate(-90.000000, -21.000000)" fill="#000000">
            <g id="Group-14-Copy-2" transform="translate(90.000000, 21.000000)">
                <path d="M65.7259551,7.23693975 L65.7259551,26.4152893 C65.7259551,30.3145042 64.0624164,32.8398947 60.578736,32.8398947 C59.447057,32.8398947 58.254805,32.5206782 57.1556285,31.7852868 L58.5369861,28.7482549 C59.1973785,29.0674714 59.8237909,29.2285713 60.3896304,29.1957547 C61.64541,29.131613 61.9275911,28.1411468 61.9275911,26.4152893 L61.9275911,7.23693975 L65.7259551,7.23693975 Z" id="Fill-1"></path>
                <path d="M73.287281,17.1938475 C73.287281,20.8217403 76.3214291,23.8474685 79.7481792,23.8474685 C88.403205,23.8474685 88.403205,10.5789796 79.7481792,10.5789796 C75.9880876,10.5789796 73.287281,13.5659546 73.287281,17.1938475 Z M86.7913139,7.70081153 L89.9884289,7.70081153 L89.9884289,26.7256366 L86.8683528,26.7256366 L86.6387176,23.9473325 C85.5646173,26.1860732 81.3200694,27.2666904 79.2103884,27.3054436 C73.6102519,27.3441968 69.4679287,23.8698261 69.4679287,17.1938475 C69.4679287,10.6341283 73.8028491,7.19851083 79.3259467,7.237264 C81.8578603,7.237264 85.5646173,8.43414073 86.6387176,10.3255935 L86.7913139,7.70081153 Z" id="Fill-4"></path>
                <path d="M19.8312604,10.6108677 C17.7294934,8.52578915 14.8264184,7.23693975 11.6182244,7.23693975 C5.20331747,7.23693975 0,12.3982905 0,18.7621704 L0,27.1233204 L4.2983283,27.1233204 C4.27018624,26.8688248 4.2568558,26.6113525 4.2568558,26.3464389 L4.2568558,19.1997244 C4.2568558,15.1664889 7.55243831,11.8982288 11.6182244,11.8982288 C13.651858,11.8982288 15.4899784,12.7152938 16.8245042,14.0353971 C18.1560676,15.3584769 18.979593,17.1831066 18.979593,19.1997244 L18.979593,26.3464389 C18.979593,26.6113525 18.9677437,26.8688248 18.9381205,27.1233204 L23.2364488,27.1233204 L23.2364488,18.7621704 C23.2364488,15.5802304 21.9359897,12.6989228 19.8312604,10.6108677" id="Fill-6"></path>
                <path d="M54.5954019,10.6108677 C52.4936349,8.52578915 49.5890788,7.23693975 46.3823659,7.23693975 C39.967459,7.23693975 34.7641415,12.3982905 34.7641415,18.7621704 L34.7641415,27.1233204 L39.0609887,27.1233204 C39.0328466,26.8688248 39.0209973,26.6113525 39.0209973,26.3464389 L39.0209973,19.1997244 C39.0209973,15.1664889 42.3150987,11.8982288 46.3823659,11.8982288 C48.4145184,11.8982288 50.2541199,12.7152938 51.5886457,14.0353971 C52.918728,15.3584769 53.7422533,17.1831066 53.7422533,19.1997244 L53.7422533,26.3464389 C53.7422533,26.6113525 53.7304041,26.8688248 53.702262,27.1233204 L58.0005903,27.1233204 L58.0005903,18.7621704 C58.0005903,15.5802304 56.7001312,12.6989228 54.5954019,10.6108677" id="Fill-8"></path>
                <polygon id="Fill-10" points="27.0991312 27.1233204 30.9618136 27.1233204 30.9618136 7.23693975 27.0991312 7.23693975"></polygon>
                <path d="M61.621855,2.06769707 C61.621855,0.925455161 62.5268003,0 63.6437279,0 C64.7591935,0 65.6656007,0.925455161 65.6656007,2.06769707 C65.6656007,3.20993898 64.7591935,4.13539414 63.6437279,4.13539414 C62.5268003,4.13539414 61.621855,3.20993898 61.621855,2.06769707" id="Fill-12"></path>
                <path d="M26.9180679,2.06769707 C26.9180679,0.925455161 27.8230132,0 28.9399407,0 C30.0554064,0 30.9618136,0.925455161 30.9618136,2.06769707 C30.9618136,3.20993898 30.0554064,4.13539414 28.9399407,4.13539414 C27.8230132,4.13539414 26.9180679,3.20993898 26.9180679,2.06769707" id="Fill-13"></path>
            </g>
        </g>
    </g>
</svg>