<?xml version="1.0" encoding="UTF-8"?>
<svg width="100px" height="100px" viewBox="0 0 100 100" version="1.1" xmlns="http://www.w3.org/2000/svg" xmlns:xlink="http://www.w3.org/1999/xlink">
    <!-- Generator: Sketch 50.2 (55047) - http://www.bohemiancoding.com/sketch -->
    <title>clipboard</title>
    <desc>Created with Sketch.</desc>
    <defs>
        <path d="M25,0 C38.8071287,0 50,11.1928713 50,25 C50,38.8071287 38.8071287,50 25,50 C11.1928713,50 0,38.8071287 0,25 C0,11.1928713 11.1928713,0 25,0" id="path-1"></path>
        <filter x="-79.0%" y="-69.0%" width="274.0%" height="274.0%" filterUnits="objectBoundingBox" id="filter-2">
            <feOffset dx="4" dy="9" in="SourceAlpha" result="shadowOffsetOuter1"></feOffset>
            <feGaussianBlur stdDeviation="13" in="shadowOffsetOuter1" result="shadowBlurOuter1"></feGaussianBlur>
            <feColorMatrix values="0 0 0 0 0.06223   0 0 0 0 0.487457   0 0 0 0 0.277839  0 0 0 0.1 0" type="matrix" in="shadowBlurOuter1"></feColorMatrix>
        </filter>
    </defs>
    <g id="Page-1" stroke="none" stroke-width="1" fill="none" fill-rule="evenodd">
        <g id="Landing-page-Ninja-Fund" transform="translate(-430.000000, -740.000000)">
            <g id="Group-15" transform="translate(416.000000, 725.000000)">
                <g id="Group-35">
                    <g id="Group-19">
                        <g id="Group-14">
                            <g id="Group-17">
                                <g id="clipboard" transform="translate(35.000000, 31.000000)">
                                    <g id="Group-3">
                                        <g id="Fill-1">
                                            <use fill="black" fill-opacity="1" filter="url(#filter-2)" xlink:href="#path-1"></use>
                                            <use fill="#35C37D" fill-rule="evenodd" xlink:href="#path-1"></use>
                                        </g>
                                        <g id="icons8-currency_exchange" transform="translate(13.000000, 13.000000)" fill="#FFFFFF" fill-rule="nonzero">
                                            <path d="M7.68,0 C3.43687488,0 0,3.43687488 0,7.68 C0,11.9231251 3.43687488,15.36 7.68,15.36 C8.0325,15.36 8.37562512,15.3468749 8.715,15.3 C8.67,15.6356251 8.64,15.9731251 8.64,16.32 C8.64,20.5556251 12.0843749,24 16.32,24 C20.5556251,24 24,20.5556251 24,16.32 C24,12.0843749 20.5556251,8.64 16.32,8.64 C15.9731251,8.64 15.6356251,8.67 15.3,8.715 C15.3468749,8.37562512 15.36,8.0325 15.36,7.68 C15.36,3.43687488 11.9231251,0 7.68,0 Z M19.335,0.135 L16.935,2.535 L16.605,2.88 L16.935,3.225 L19.335,5.625 L20.025,4.935 L18.45,3.36 L20.64,3.36 C21.9618749,3.36 23.04,4.43812512 23.04,5.76 L23.04,8.64 L24,8.64 L24,5.76 C24,3.915 22.485,2.4 20.64,2.4 L18.45,2.4 L20.025,0.825 L19.335,0.135 Z M7.68,0.96 C11.4056251,0.96 14.4,3.95437488 14.4,7.68 C14.4,8.13187488 14.3643749,8.53125024 14.28,8.925 C11.685,9.64125024 9.64125024,11.685 8.925,14.28 C8.53125024,14.3643749 8.13187488,14.4 7.68,14.4 C3.95437488,14.4 0.96,11.4056251 0.96,7.68 C0.96,3.95437488 3.95437488,0.96 7.68,0.96 Z M16.32,9.6 C20.0362502,9.6 23.04,12.6037502 23.04,16.32 C23.04,20.0362502 20.0362502,23.04 16.32,23.04 C12.6037502,23.04 9.6,20.0362502 9.6,16.32 C9.6,12.6037502 12.6037502,9.6 16.32,9.6 Z M16.125,11.61 L16.125,12.33 C15.8362502,12.33 15.5587502,12.4293749 15.27,12.525 C14.9812502,12.6693749 14.7412502,12.8137502 14.55,13.005 C14.3587502,13.245 14.1656251,13.4362502 14.07,13.725 C13.9256251,13.965 13.875,14.2593749 13.875,14.595 C13.875,14.9306251 13.9143749,15.165 14.01,15.405 C14.0587502,15.645 14.2087502,15.8456251 14.4,15.99 C14.5912502,16.1343749 14.7862502,16.2693749 15.075,16.365 C15.315,16.4606251 15.6506251,16.5543749 16.035,16.65 L16.035,19.485 C15.6037502,19.3893749 15.2587502,19.2487502 14.97,18.96 C14.73,18.72 14.5462502,18.3337502 14.595,17.805 L13.68,17.805 C13.7287502,18.5737502 13.9687502,19.1587502 14.4,19.59 C14.7843749,20.0212502 15.36,20.3062502 16.08,20.355 L16.08,21.21 L16.65,21.21 L16.65,20.355 C17.0343749,20.355 17.3212502,20.2556251 17.61,20.16 C17.8987502,20.0156251 18.1387502,19.8712502 18.33,19.68 C18.5212502,19.4887502 18.7143749,19.2487502 18.81,18.96 C18.9543749,18.72 19.005,18.3806251 19.005,18.045 C19.005,17.7093749 18.9543749,17.43 18.81,17.19 C18.7143749,16.95 18.5812502,16.7493749 18.39,16.605 C18.1987502,16.4137502 17.9962502,16.3256251 17.805,16.23 C17.6137502,16.1343749 17.4693749,16.0837502 17.325,16.035 L16.71,15.84 L16.71,13.2 C17.3812502,13.3443749 17.7656251,13.725 17.91,14.445 L18.81,14.445 C18.6656251,13.8206251 18.4256251,13.2956251 18.09,12.96 C17.7543749,12.6243749 17.2856251,12.3787502 16.71,12.33 L16.71,11.61 L16.125,11.61 Z M16.035,13.245 L16.035,15.75 C15.8906251,15.7012502 15.6993749,15.6037502 15.555,15.555 C15.4106251,15.4593749 15.2606251,15.4106251 15.165,15.315 C15.0693749,15.2193749 14.9737502,15.1143749 14.925,14.97 C14.8762502,14.8256251 14.835,14.6812502 14.835,14.49 C14.835,14.1056251 14.925,13.7812502 15.165,13.59 C15.405,13.35 15.7462502,13.245 16.035,13.245 Z M0,15.36 L0,18.24 C0,20.085 1.515,21.6 3.36,21.6 L5.55,21.6 L3.975,23.175 L4.665,23.865 L7.065,21.465 L7.395,21.12 L7.065,20.775 L4.665,18.375 L3.975,19.065 L5.55,20.64 L3.36,20.64 C2.03812512,20.64 0.96,19.5618749 0.96,18.24 L0.96,15.36 L0,15.36 Z M16.65,16.845 C16.8412502,16.8937502 16.9987502,16.9912502 17.19,17.04 C17.3343749,17.0887502 17.4656251,17.1843749 17.61,17.28 C17.7543749,17.3756251 17.8612502,17.4656251 17.91,17.61 C17.9587502,17.7543749 18,17.9587502 18,18.15 C18,18.3412502 17.9587502,18.5756251 17.91,18.72 C17.8612502,18.9112502 17.7543749,19.0593749 17.61,19.155 C17.5143749,19.2506251 17.3343749,19.3462502 17.19,19.395 C17.0456251,19.4437502 16.8412502,19.4812502 16.65,19.53 L16.65,16.845 Z" id="Shape"></path>
                                            <path d="M6.17647059,4 L6.17647059,4.92307692 L5,4.92307692 L5,11.0769231 L6.17647059,11.0769231 L6.17647059,12 L6.76470588,12 L6.76470588,11.0769231 L7.35294118,11.0769231 L7.35294118,12 L7.94117647,12 L7.94117647,11.0769231 L8.38235294,11.0769231 C9.27274824,11.0769231 10,10.3161058 10,9.38461538 C10,8.74399046 9.65877765,8.18149046 9.15441176,7.89423077 C9.49448529,7.58293262 9.70588235,7.12259631 9.70588235,6.61538462 C9.70588235,5.68389415 8.97863059,4.92307692 8.08823529,4.92307692 L7.94117647,4.92307692 L7.94117647,4 L7.35294118,4 L7.35294118,4.92307692 L6.76470588,4.92307692 L6.76470588,4 L6.17647059,4 Z M5.58823529,5.53846154 L8.08823529,5.53846154 C8.66038618,5.53846154 9.11764706,6.01682708 9.11764706,6.61538462 C9.11764706,7.21394246 8.66038618,7.69230769 8.08823529,7.69230769 L5.58823529,7.69230769 L5.58823529,5.53846154 Z M5.58823529,8.30769231 L8.38235294,8.30769231 C8.95450382,8.30769231 9.41176471,8.78605785 9.41176471,9.38461538 C9.41176471,9.98317323 8.95450382,10.4615385 8.38235294,10.4615385 L5.58823529,10.4615385 L5.58823529,8.30769231 Z" id="Shape" stroke="#FFFFFF" stroke-width="0.2"></path>
                                        </g>
                                    </g>
                                </g>
                            </g>
                        </g>
                    </g>
                </g>
            </g>
        </g>
    </g>
</svg>