<?xml version="1.0" encoding="UTF-8"?>
<svg width="100px" height="100px" viewBox="0 0 100 100" version="1.1" xmlns="http://www.w3.org/2000/svg" xmlns:xlink="http://www.w3.org/1999/xlink">
    <!-- Generator: Sketch 50.2 (55047) - http://www.bohemiancoding.com/sketch -->
    <title>clipboard</title>
    <desc>Created with Sketch.</desc>
    <defs>
        <path d="M25,0 C38.8071287,0 50,11.1928713 50,25 C50,38.8071287 38.8071287,50 25,50 C11.1928713,50 0,38.8071287 0,25 C0,11.1928713 11.1928713,0 25,0" id="path-1"></path>
        <filter x="-79.0%" y="-69.0%" width="274.0%" height="274.0%" filterUnits="objectBoundingBox" id="filter-2">
            <feOffset dx="4" dy="9" in="SourceAlpha" result="shadowOffsetOuter1"></feOffset>
            <feGaussianBlur stdDeviation="13" in="shadowOffsetOuter1" result="shadowBlurOuter1"></feGaussianBlur>
            <feColorMatrix values="0 0 0 0 0.06223   0 0 0 0 0.487457   0 0 0 0 0.277839  0 0 0 0.1 0" type="matrix" in="shadowBlurOuter1"></feColorMatrix>
        </filter>
    </defs>
    <g id="Page-1" stroke="none" stroke-width="1" fill="none" fill-rule="evenodd">
        <g id="Landing-page-Ninja-Fund" transform="translate(-753.000000, -740.000000)">
            <g id="Group-4" transform="translate(743.000000, 725.000000)">
                <g id="clipboard" transform="translate(30.800000, 30.800000)">
                    <g id="Group-3">
                        <g id="Fill-1">
                            <use fill="black" fill-opacity="1" filter="url(#filter-2)" xlink:href="#path-1"></use>
                            <use fill="#35C37D" fill-rule="evenodd" xlink:href="#path-1"></use>
                        </g>
                        <g id="icons8-no_hidden_fee_filled" transform="translate(13.000000, 13.000000)" fill="#FFFFFF" fill-rule="nonzero">
                            <path d="M11.8801563,0 C5.32701895,0 0,5.32701895 0,11.8801563 C0,18.4332937 5.32701895,23.7603126 11.8801563,23.7603126 C14.9332396,23.7603126 17.7078813,22.5879288 19.813287,20.6925749 C20.2333914,20.2724709 20.5264874,19.9793749 20.6925749,19.813287 C22.5879288,17.7078813 23.7603126,14.9332396 23.7603126,11.8801563 C23.7603126,5.32701895 18.4332937,0 11.8801563,0 Z M11.8801563,1.25054277 C17.759173,1.25054277 22.5097699,6.00113966 22.5097699,11.8801563 C22.5097699,14.7744788 21.3520411,17.3903604 19.4811116,19.305254 C19.4102802,19.3565457 19.3492187,19.4249347 19.305254,19.5006513 C17.3903604,21.3666956 14.7695942,22.5097699 11.8801563,22.5097699 C6.00113966,22.5097699 1.25054277,17.759173 1.25054277,11.8801563 C1.25054277,6.00113966 6.00113966,1.25054277 11.8801563,1.25054277 Z M11.8801563,2.50108554 C6.70945521,2.50108554 2.50108554,6.70945521 2.50108554,11.8801563 C2.50108554,14.2420214 3.38037343,16.403604 4.8263135,18.0547112 L18.0547112,4.8263135 C16.403604,3.38037343 14.2420214,2.50108554 11.8801563,2.50108554 Z M11.1376465,3.75162831 L12.6226661,3.75162831 L12.6226661,5.43204516 C13.6802539,5.61034505 14.3910117,6.05487423 14.8892749,6.6630482 L13.8732089,7.6791142 C13.4579899,7.1417716 12.8107358,6.78028658 11.8801563,6.78028658 C9.67460905,6.78028658 9.39861051,8.25553626 9.39861051,8.92965697 C9.39861051,9.89198902 9.97991781,10.407349 10.8054711,10.7468519 L9.61354755,11.9387755 C8.58038413,11.4722643 7.79635258,10.6784629 7.79635258,9.08597482 C7.79635258,6.54092519 9.91885568,5.53951368 11.1376465,5.3929657 L11.1376465,3.75162831 Z M18.9339991,5.70560139 L5.70560139,18.9339991 C7.35670864,20.3799392 9.5182912,21.2592271 11.8801563,21.2592271 C17.0508574,21.2592271 21.2592271,17.0508574 21.2592271,11.8801563 C21.2592271,9.5182912 20.3799392,7.35670864 18.9339991,5.70560139 Z M14.2053843,11.7629179 C15.3899803,12.2758362 16.2961355,13.1355843 16.2961355,14.7915762 C16.2985778,17.6981115 13.7193333,18.4967975 12.6226661,18.6018237 L12.6226661,20.0086843 L11.1376465,20.0086843 L11.1376465,18.582284 C10.4146765,18.4748155 9.39128295,18.1890471 8.59748155,17.3708207 L9.65262701,16.3352149 C10.1069261,16.8432479 10.8054711,17.2145028 11.8801563,17.2145028 C14.1663048,17.2145028 14.7134173,16.1544727 14.7134173,14.9478941 C14.7134173,13.8023775 13.9928896,13.2772471 13.0330004,12.9353018 L14.2053843,11.7629179 Z" id="Shape"></path>
                        </g>
                    </g>
                </g>
            </g>
        </g>
    </g>
</svg>