<?xml version="1.0" encoding="UTF-8"?>
<svg width="100px" height="100px" viewBox="0 0 100 100" version="1.1" xmlns="http://www.w3.org/2000/svg" xmlns:xlink="http://www.w3.org/1999/xlink">
    <!-- Generator: Sketch 50.2 (55047) - http://www.bohemiancoding.com/sketch -->
    <title>clipboard</title>
    <desc>Created with Sketch.</desc>
    <defs>
        <path d="M25,0 C38.8071287,0 50,11.1928713 50,25 C50,38.8071287 38.8071287,50 25,50 C11.1928713,50 0,38.8071287 0,25 C0,11.1928713 11.1928713,0 25,0" id="path-1"></path>
        <filter x="-79.0%" y="-69.0%" width="274.0%" height="274.0%" filterUnits="objectBoundingBox" id="filter-2">
            <feOffset dx="4" dy="9" in="SourceAlpha" result="shadowOffsetOuter1"></feOffset>
            <feGaussianBlur stdDeviation="13" in="shadowOffsetOuter1" result="shadowBlurOuter1"></feGaussianBlur>
            <feColorMatrix values="0 0 0 0 0.06223   0 0 0 0 0.487457   0 0 0 0 0.277839  0 0 0 0.1 0" type="matrix" in="shadowBlurOuter1"></feColorMatrix>
        </filter>
    </defs>
    <g id="Page-1" stroke="none" stroke-width="1" fill="none" fill-rule="evenodd">
        <g id="Landing-page-Ninja-Fund" transform="translate(-100.000000, -740.000000)">
            <g id="Group-4" transform="translate(90.000000, 725.000000)">
                <g id="clipboard" transform="translate(30.830721, 30.876133)">
                    <g id="Group-3">
                        <g id="Fill-1">
                            <use fill="black" fill-opacity="1" filter="url(#filter-2)" xlink:href="#path-1"></use>
                            <use fill="#35C37D" fill-rule="evenodd" xlink:href="#path-1"></use>
                        </g>
                        <path d="M25.472973,36.5372475 L25.472973,33.3405303 C24.1725193,33.0986924 23.1891892,31.9785901 23.1891892,30.6333334 C23.1891892,30.0758003 23.3580894,29.5569404 23.6484652,29.1232463 L20.9054054,27.1417774 L18.1623456,29.1232463 C18.4527213,29.5569404 18.6216217,30.0758003 18.6216217,30.6333334 C18.6216217,31.1948723 18.4502856,31.7171803 18.1560678,32.1527553 L24.3954056,36.9817165 C24.7129914,36.7648647 25.078384,36.6106269 25.472973,36.5372475 Z M26.527027,36.5372475 C26.921616,36.6106269 27.2870086,36.7648647 27.6045944,36.9817165 L33.8439322,32.1527553 C33.5497144,31.7171803 33.3783783,31.1948723 33.3783783,30.6333334 C33.3783783,30.0758003 33.5472787,29.5569404 33.8376544,29.1232463 L31.0945946,27.1417774 L28.3515348,29.1232463 C28.6419106,29.5569404 28.8108108,30.0758003 28.8108108,30.6333334 C28.8108108,31.9785901 27.8274807,33.0986924 26.527027,33.3405303 L26.527027,36.5372475 Z M28.345257,37.7250225 C28.6394747,38.1605975 28.8108108,38.6829054 28.8108108,39.2444445 C28.8108108,40.7662957 27.5523679,42 26,42 C24.4476321,42 23.1891892,40.7662957 23.1891892,39.2444445 C23.1891892,38.6829054 23.3605253,38.1605975 23.654743,37.7250225 L17.4154052,32.8960613 C16.9604206,33.2067308 16.4073149,33.3888889 15.8108108,33.3888889 C14.2584429,33.3888889 13,32.1551847 13,30.6333334 C13,29.2880767 13.9833302,28.1679742 15.2837837,27.9261363 L15.2837837,25.0738637 C13.9833302,24.8320258 13,23.7119233 13,22.3666666 C13,20.8448153 14.2584429,19.6111111 15.8108108,19.6111111 C16.4073149,19.6111111 16.9604206,19.7932692 17.4154052,20.1039387 L23.654743,15.2749775 C23.3605253,14.8394025 23.1891892,14.3170946 23.1891892,13.7555555 C23.1891892,12.2337043 24.4476321,11 26,11 C27.5523679,11 28.8108108,12.2337043 28.8108108,13.7555555 C28.8108108,14.3170946 28.6394747,14.8394025 28.345257,15.2749775 L34.5845948,20.1039387 C35.0395794,19.7932692 35.5926851,19.6111111 36.1891892,19.6111111 C37.7415571,19.6111111 39,20.8448153 39,22.3666666 C39,23.7119233 38.0166698,24.8320258 36.7162163,25.0738637 L36.7162163,27.9261363 C38.0166698,28.1679742 39,29.2880767 39,30.6333334 C39,32.1551847 37.7415571,33.3888889 36.1891892,33.3888889 C35.5926851,33.3888889 35.0395794,33.2067308 34.5845948,32.8960613 L28.345257,37.7250225 Z M17.4215482,28.3748118 L20.0169566,26.5 L17.4215482,24.6251882 C17.1025347,24.8442521 16.7349735,25.0000106 16.3378378,25.0738637 L16.3378378,27.9261363 C16.7349735,27.9999894 17.1025347,28.1557479 17.4215482,28.3748118 Z M18.1623456,23.8767537 L20.9054054,25.8582226 L23.6484652,23.8767537 C23.3580894,23.4430596 23.1891892,22.9241997 23.1891892,22.3666666 C23.1891892,21.0214099 24.1725193,19.9013076 25.472973,19.6594697 L25.472973,16.4627525 C25.078384,16.3893731 24.7129914,16.2351353 24.3954056,16.0182835 L18.1560678,20.8472447 C18.4502856,21.2828197 18.6216217,21.8051277 18.6216217,22.3666666 C18.6216217,22.9241997 18.4527213,23.4430596 18.1623456,23.8767537 Z M34.5784518,28.3748118 C34.8974653,28.1557479 35.2650265,27.9999894 35.6621622,27.9261363 L35.6621622,25.0738637 C35.2650265,25.0000106 34.8974653,24.8442521 34.5784518,24.6251882 L31.9830434,26.5 L34.5784518,28.3748118 Z M33.8439322,20.8472447 L27.6045944,16.0182835 C27.2870086,16.2351353 26.921616,16.3893731 26.527027,16.4627525 L26.527027,19.6594697 C27.8274807,19.9013076 28.8108108,21.0214099 28.8108108,22.3666666 C28.8108108,22.9241997 28.6419106,23.4430596 28.3515348,23.8767537 L31.0945946,25.8582226 L33.8376544,23.8767537 C33.5472787,23.4430596 33.3783783,22.9241997 33.3783783,22.3666666 C33.3783783,21.8051277 33.5497144,21.2828197 33.8439322,20.8472447 Z M24.3892625,28.3748118 C24.8454077,28.0615809 25.4008087,27.8777778 26,27.8777778 C26.5991913,27.8777778 27.1545923,28.0615809 27.6107375,28.3748118 L30.2061457,26.5 L27.6107375,24.6251882 C27.1545923,24.9384191 26.5991913,25.1222222 26,25.1222222 C25.4008087,25.1222222 24.8454077,24.9384191 24.3892625,24.6251882 L21.7938543,26.5 L24.3892625,28.3748118 Z M26,24.0888889 C26.9702299,24.0888889 27.7567568,23.3178238 27.7567568,22.3666666 C27.7567568,21.4155096 26.9702299,20.6444445 26,20.6444445 C25.0297701,20.6444445 24.2432432,21.4155096 24.2432432,22.3666666 C24.2432432,23.3178238 25.0297701,24.0888889 26,24.0888889 Z M26,32.3555555 C26.9702299,32.3555555 27.7567568,31.5844904 27.7567568,30.6333334 C27.7567568,29.6821762 26.9702299,28.9111111 26,28.9111111 C25.0297701,28.9111111 24.2432432,29.6821762 24.2432432,30.6333334 C24.2432432,31.5844904 25.0297701,32.3555555 26,32.3555555 Z M36.1891892,24.0888889 C37.1594191,24.0888889 37.9459459,23.3178238 37.9459459,22.3666666 C37.9459459,21.4155096 37.1594191,20.6444445 36.1891892,20.6444445 C35.2189592,20.6444445 34.4324324,21.4155096 34.4324324,22.3666666 C34.4324324,23.3178238 35.2189592,24.0888889 36.1891892,24.0888889 Z M36.1891892,32.3555555 C37.1594191,32.3555555 37.9459459,31.5844904 37.9459459,30.6333334 C37.9459459,29.6821762 37.1594191,28.9111111 36.1891892,28.9111111 C35.2189592,28.9111111 34.4324324,29.6821762 34.4324324,30.6333334 C34.4324324,31.5844904 35.2189592,32.3555555 36.1891892,32.3555555 Z M15.8108108,24.0888889 C16.7810408,24.0888889 17.5675676,23.3178238 17.5675676,22.3666666 C17.5675676,21.4155096 16.7810408,20.6444445 15.8108108,20.6444445 C14.8405809,20.6444445 14.0540541,21.4155096 14.0540541,22.3666666 C14.0540541,23.3178238 14.8405809,24.0888889 15.8108108,24.0888889 Z M15.8108108,32.3555555 C16.7810408,32.3555555 17.5675676,31.5844904 17.5675676,30.6333334 C17.5675676,29.6821762 16.7810408,28.9111111 15.8108108,28.9111111 C14.8405809,28.9111111 14.0540541,29.6821762 14.0540541,30.6333334 C14.0540541,31.5844904 14.8405809,32.3555555 15.8108108,32.3555555 Z M26,40.9666666 C26.9702299,40.9666666 27.7567568,40.1956015 27.7567568,39.2444445 C27.7567568,38.2932874 26.9702299,37.5222222 26,37.5222222 C25.0297701,37.5222222 24.2432432,38.2932874 24.2432432,39.2444445 C24.2432432,40.1956015 25.0297701,40.9666666 26,40.9666666 Z M26,15.4777778 C26.9702299,15.4777778 27.7567568,14.7067126 27.7567568,13.7555555 C27.7567568,12.8043985 26.9702299,12.0333334 26,12.0333334 C25.0297701,12.0333334 24.2432432,12.8043985 24.2432432,13.7555555 C24.2432432,14.7067126 25.0297701,15.4777778 26,15.4777778 Z" id="Shape" fill="#FFFFFF" fill-rule="nonzero"></path>
                    </g>
                </g>
            </g>
        </g>
    </g>
</svg>