<?xml version="1.0" encoding="UTF-8"?>
<svg width="100px" height="100px" viewBox="0 0 100 100" version="1.1" xmlns="http://www.w3.org/2000/svg" xmlns:xlink="http://www.w3.org/1999/xlink">
    <!-- Generator: Sketch 50.2 (55047) - http://www.bohemiancoding.com/sketch -->
    <title>clipboard</title>
    <desc>Created with Sketch.</desc>
    <defs>
        <path d="M25,0 C38.8071287,0 50,11.1928713 50,25 C50,38.8071287 38.8071287,50 25,50 C11.1928713,50 0,38.8071287 0,25 C0,11.1928713 11.1928713,0 25,0" id="path-1"></path>
        <filter x="-79.0%" y="-69.0%" width="274.0%" height="274.0%" filterUnits="objectBoundingBox" id="filter-2">
            <feOffset dx="4" dy="9" in="SourceAlpha" result="shadowOffsetOuter1"></feOffset>
            <feGaussianBlur stdDeviation="13" in="shadowOffsetOuter1" result="shadowBlurOuter1"></feGaussianBlur>
            <feColorMatrix values="0 0 0 0 0.06223   0 0 0 0 0.487457   0 0 0 0 0.277839  0 0 0 0.1 0" type="matrix" in="shadowBlurOuter1"></feColorMatrix>
        </filter>
    </defs>
    <g id="Page-1" stroke="none" stroke-width="1" fill="none" fill-rule="evenodd">
        <g id="Landing-page-Ninja-Fund" transform="translate(-1079.000000, -740.000000)">
            <g id="Group-4" transform="translate(1069.000000, 725.000000)">
                <g id="clipboard" transform="translate(30.800000, 30.800000)">
                    <g id="Group-3">
                        <g id="Fill-1">
                            <use fill="black" fill-opacity="1" filter="url(#filter-2)" xlink:href="#path-1"></use>
                            <use fill="#35C37D" fill-rule="evenodd" xlink:href="#path-1"></use>
                        </g>
                        <g id="icons8-sales_performance_filled" transform="translate(13.000000, 14.000000)" fill="#FFFFFF" fill-rule="nonzero">
                            <path d="M20.16,0 C18.0393749,0 16.32,0.642663043 16.32,1.43478261 C16.32,2.22690217 18.0393749,2.86956522 20.16,2.86956522 C22.2806251,2.86956522 24,2.22690217 24,1.43478261 C24,0.642663043 22.2806251,0 20.16,0 Z M16.32,2.34646739 L16.32,3.82608696 C16.32,4.63875691 18.0487502,5.26086957 20.16,5.26086957 C22.2712502,5.26086957 24,4.63875691 24,3.82608696 L24,2.34646739 C23.2312502,3.01528557 21.6956251,3.34782609 20.16,3.34782609 C18.6243749,3.34782609 17.0887502,3.01528557 16.32,2.34646739 Z M16.32,4.73777174 L16.32,6.2173913 C16.32,7.03006126 18.0487502,7.65217391 20.16,7.65217391 C22.2712502,7.65217391 24,7.03006126 24,6.2173913 L24,4.73777174 C23.2312502,5.40658991 21.6956251,5.73913043 20.16,5.73913043 C18.6243749,5.73913043 17.0887502,5.40658991 16.32,4.73777174 Z M16.32,7.12907609 L16.32,8.60869565 C16.32,9.42136561 18.0487502,10.0434783 20.16,10.0434783 C22.2712502,10.0434783 24,9.42136561 24,8.60869565 L24,7.12907609 C23.2312502,7.79789426 21.6956251,8.13043478 20.16,8.13043478 C18.6243749,8.13043478 17.0887502,7.79789426 16.32,7.12907609 Z M3.84,7.17391304 C1.71937488,7.17391304 0,7.81657609 0,8.60869565 C0,9.40081522 1.71937488,10.0434783 3.84,10.0434783 C5.96062512,10.0434783 7.68,9.40081522 7.68,8.60869565 C7.68,7.81657609 5.96062512,7.17391304 3.84,7.17391304 Z M0,9.52038043 L0,11 C0,11.81267 1.72875024,12.4347826 3.84,12.4347826 C5.95125024,12.4347826 7.68,11.81267 7.68,11 L7.68,9.52038043 C6.91125024,10.1891986 5.37562512,10.5217391 3.84,10.5217391 C2.30437488,10.5217391 0.76875024,10.1891986 0,9.52038043 Z M16.32,9.52038043 L16.32,11 C16.32,11.81267 18.0487502,12.4347826 20.16,12.4347826 C22.2712502,12.4347826 24,11.81267 24,11 L24,9.52038043 C23.2312502,10.1891986 21.6956251,10.5217391 20.16,10.5217391 C18.6243749,10.5217391 17.0887502,10.1891986 16.32,9.52038043 Z M0,11.9116848 L0,13.3913043 C0,14.2039743 1.72875024,14.826087 3.84,14.826087 C5.95125024,14.826087 7.68,14.2039743 7.68,13.3913043 L7.68,11.9116848 C6.91125024,12.580503 5.37562512,12.9130435 3.84,12.9130435 C2.30437488,12.9130435 0.76875024,12.580503 0,11.9116848 Z M16.32,11.9116848 L16.32,13.3913043 C16.32,14.2039743 18.0487502,14.826087 20.16,14.826087 C22.2712502,14.826087 24,14.2039743 24,13.3913043 L24,11.9116848 C23.2312502,12.580503 21.6956251,12.9130435 20.16,12.9130435 C18.6243749,12.9130435 17.0887502,12.580503 16.32,11.9116848 Z M12,11.9565217 C9.87937488,11.9565217 8.16,12.5991848 8.16,13.3913043 C8.16,14.1834239 9.87937488,14.826087 12,14.826087 C14.1206251,14.826087 15.84,14.1834239 15.84,13.3913043 C15.84,12.5991848 14.1206251,11.9565217 12,11.9565217 Z M0,14.3029891 L0,15.7826087 C0,16.5952787 1.72875024,17.2173913 3.84,17.2173913 C5.95125024,17.2173913 7.68,16.5952787 7.68,15.7826087 L7.68,14.3029891 C6.91125024,14.9718073 5.37562512,15.3043478 3.84,15.3043478 C2.30437488,15.3043478 0.76875024,14.9718073 0,14.3029891 Z M8.16,14.3029891 L8.16,15.7826087 C8.16,16.5952787 9.88875024,17.2173913 12,17.2173913 C14.1112502,17.2173913 15.84,16.5952787 15.84,15.7826087 L15.84,14.3029891 C15.0712502,14.9718073 13.5356251,15.3043478 12,15.3043478 C10.4643749,15.3043478 8.92875024,14.9718073 8.16,14.3029891 Z M16.32,14.3029891 L16.32,15.7826087 C16.32,16.5952787 18.0487502,17.2173913 20.16,17.2173913 C22.2712502,17.2173913 24,16.5952787 24,15.7826087 L24,14.3029891 C23.2312502,14.9718073 21.6956251,15.3043478 20.16,15.3043478 C18.6243749,15.3043478 17.0887502,14.9718073 16.32,14.3029891 Z M0,16.6942935 L0,18.173913 C0,18.986583 1.72875024,19.6086957 3.84,19.6086957 C5.95125024,19.6086957 7.68,18.986583 7.68,18.173913 L7.68,16.6942935 C6.91125024,17.3631117 5.37562512,17.6956522 3.84,17.6956522 C2.30437488,17.6956522 0.76875024,17.3631117 0,16.6942935 Z M8.16,16.6942935 L8.16,18.173913 C8.16,18.986583 9.88875024,19.6086957 12,19.6086957 C14.1112502,19.6086957 15.84,18.986583 15.84,18.173913 L15.84,16.6942935 C15.0712502,17.3631117 13.5356251,17.6956522 12,17.6956522 C10.4643749,17.6956522 8.92875024,17.3631117 8.16,16.6942935 Z M16.32,16.6942935 L16.32,18.173913 C16.32,18.986583 18.0487502,19.6086957 20.16,19.6086957 C22.2712502,19.6086957 24,18.986583 24,18.173913 L24,16.6942935 C23.2312502,17.3631117 21.6956251,17.6956522 20.16,17.6956522 C18.6243749,17.6956522 17.0887502,17.3631117 16.32,16.6942935 Z M0,19.0855978 L0,20.5652174 C0,21.3778873 1.72875024,22 3.84,22 C5.95125024,22 7.68,21.3778873 7.68,20.5652174 L7.68,19.0855978 C6.91125024,19.754416 5.37562512,20.0869565 3.84,20.0869565 C2.30437488,20.0869565 0.76875024,19.754416 0,19.0855978 Z M8.16,19.0855978 L8.16,20.5652174 C8.16,21.3778873 9.88875024,22 12,22 C14.1112502,22 15.84,21.3778873 15.84,20.5652174 L15.84,19.0855978 C15.0712502,19.754416 13.5356251,20.0869565 12,20.0869565 C10.4643749,20.0869565 8.92875024,19.754416 8.16,19.0855978 Z M16.32,19.0855978 L16.32,20.5652174 C16.32,21.3778873 18.0487502,22 20.16,22 C22.2712502,22 24,21.3778873 24,20.5652174 L24,19.0855978 C23.2312502,19.754416 21.6956251,20.0869565 20.16,20.0869565 C18.6243749,20.0869565 17.0887502,19.754416 16.32,19.0855978 Z" id="Shape"></path>
                        </g>
                    </g>
                </g>
            </g>
        </g>
    </g>
</svg>