<?xml version="1.0" encoding="UTF-8"?>
<svg width="40px" height="40px" viewBox="0 0 40 40" version="1.1" xmlns="http://www.w3.org/2000/svg" xmlns:xlink="http://www.w3.org/1999/xlink">
    <!-- Generator: Sketch 50.2 (55047) - http://www.bohemiancoding.com/sketch -->
    <title>facebook</title>
    <desc>Created with Sketch.</desc>
    <defs></defs>
    <g id="facebook" stroke="none" stroke-width="1" fill="none" fill-rule="evenodd">
        <path d="M19.984681,39.4655 C9.121666,39.4655 0.284298,30.6135 0.284298,19.733 C0.284298,8.852 9.121666,0 19.984681,0 C30.847696,0 39.685064,8.852 39.685064,19.733 C39.685064,30.6135 30.847696,39.4655 19.984681,39.4655 Z M19.984681,1.5 C9.947299,1.5 1.781818,9.679 1.781818,19.733 C1.781818,29.7865 9.947299,37.9655 19.984681,37.9655 C30.021564,37.9655 38.187544,29.7865 38.187544,19.733 C38.187544,9.679 30.021564,1.5 19.984681,1.5 Z" id="Facebook-Circle" fill="#43619C" fill-rule="nonzero"></path>
        <path d="M21.312954,27.8196729 L21.312954,19.658881 L23.561966,19.658881 L23.860008,16.8466269 L21.312954,16.8466269 L21.316775,15.4390667 C21.316775,14.7055875 21.38635,14.3125726 22.438097,14.3125726 L23.844087,14.3125726 L23.844087,11.5 L21.594757,11.5 C18.892949,11.5 17.941983,12.8642458 17.941983,15.1584782 L17.941983,16.8469454 L16.257851,16.8469454 L16.257851,19.6591995 L17.941983,19.6591995 L17.941983,27.8196729 L21.312954,27.8196729 Z" id="Shape" fill="#43619C" fill-rule="nonzero"></path>
    </g>
</svg>