<?xml version="1.0" encoding="UTF-8"?>
<svg width="40px" height="40px" viewBox="0 0 40 40" version="1.1" xmlns="http://www.w3.org/2000/svg" xmlns:xlink="http://www.w3.org/1999/xlink">
    <!-- Generator: Sketch 50.2 (55047) - http://www.bohemiancoding.com/sketch -->
    <title>linkedin</title>
    <desc>Created with Sketch.</desc>
    <defs></defs>
    <g id="linkedin" stroke="none" stroke-width="1" fill="none" fill-rule="evenodd">
        <path d="M20.676608,39.9655 C9.814093,39.9655 0.976724,31.1135 0.976724,20.233 C0.976724,9.352 9.814093,0.5 20.676608,0.5 C31.539623,0.5 40.376992,9.352 40.376992,20.233 C40.376992,31.1135 31.539623,39.9655 20.676608,39.9655 Z M20.676608,2 C10.639726,2 2.474245,10.179 2.474245,20.233 C2.474245,30.2865 10.639726,38.4655 20.676608,38.4655 C30.71399,38.4655 38.879471,30.2865 38.879471,20.233 C38.879471,10.179 30.71399,2 20.676608,2 Z" id="Linkedin-Cirlce" fill="#187FB8" fill-rule="nonzero"></path>
        <path d="M12.422774,17.377 L16.011831,17.377 L16.011831,28.768 L12.422774,28.768 L12.422774,17.377 Z M25.818096,17.2675 C28.368873,17.2675 30.373055,18.906 30.373055,22.4345 L30.373055,28.768 L26.303293,28.768 L26.303293,22.8735 C26.303293,21.3305 25.666846,20.277 24.266664,20.277 C23.195937,20.277 22.600423,20.988 22.323382,21.673 C22.219554,21.919 22.235527,22.2615 22.235527,22.604 L22.235527,28.768 L18.203702,28.768 C18.203702,28.768 18.255617,18.3265 18.203702,17.377 L22.235527,17.377 L22.235527,19.165 C22.473633,18.383 23.762,17.2675 25.818096,17.2675 Z M14.150912,12 C15.47522,12 16.289372,12.8505 16.315329,13.9745 C16.315329,15.078 15.47522,15.952 14.125954,15.952 L14.099997,15.952 C12.801147,15.952 11.958542,15.0815 11.958542,13.9775 C11.958542,12.8525 12.825607,12 14.150912,12 Z" id="Linkedin" fill="#187FB8" fill-rule="nonzero"></path>
    </g>
</svg>