<?xml version="1.0" encoding="UTF-8"?>
<svg width="105px" height="50px" viewBox="0 0 105 50" version="1.1" xmlns="http://www.w3.org/2000/svg" xmlns:xlink="http://www.w3.org/1999/xlink">
    <!-- Generator: Sketch 50.2 (55047) - http://www.bohemiancoding.com/sketch -->
    <title>Head</title>
    <desc>Created with Sketch.</desc>
    <defs>
        <polygon id="path-1" points="0 49.6954167 104.74716 49.6954167 104.74716 0 0 0"></polygon>
    </defs>
    <g id="Page-1" stroke="none" stroke-width="1" fill="none" fill-rule="evenodd">
        <g id="Landing-page-Ninja-Fund" transform="translate(-70.000000, -70.000000)">
            <g id="Head" transform="translate(70.000000, 70.000000)">
                <g id="Group-13">
                    <path d="M15.255576,40.7401667 L15.255576,28.5405833 C15.255576,26.2568333 14.011536,25.3885 12.031656,25.3885 C10.143336,25.3885 9.176076,26.3480833 8.485176,27.1243333 L8.485176,40.7401667 L0.195216,40.7401667 L0.195216,18.6730833 L8.485176,18.6730833 L8.485176,21.1851667 C9.774576,19.7230833 12.215616,18.1239167 16.130436,18.1239167 C21.288456,18.1239167 23.545116,21.2318333 23.545116,25.0689167 L23.545116,40.7401667 L15.255576,40.7401667 Z" id="Fill-1" fill="#FFFFFF"></path>
                    <path d="M27.643518,9.63504167 C27.643518,7.07629167 29.715798,5.020875 32.295438,5.020875 C34.874238,5.020875 36.946938,7.07629167 36.946938,9.63504167 C36.946938,12.1937917 34.874238,14.250875 32.295438,14.250875 C29.715798,14.250875 27.643518,12.1937917 27.643518,9.63504167" id="Fill-3" fill="#FFFFFF"></path>
                    <mask id="mask-2" fill="white">
                        <use xlink:href="#path-1"></use>
                    </mask>
                    <g id="Clip-6"></g>
                    <polygon id="Fill-5" fill="#FFFFFF" mask="url(#mask-2)" points="28.1505 40.7404167 36.44004 40.7404167 36.44004 18.6733333 28.1505 18.6733333"></polygon>
                    <path d="M56.10486,40.7401667 L56.10486,28.5405833 C56.10486,26.2568333 54.86208,25.3885 52.88094,25.3885 C50.99346,25.3885 50.0262,26.3480833 49.33488,27.1243333 L49.33488,40.7401667 L41.04576,40.7401667 L41.04576,18.6730833 L49.33488,18.6730833 L49.33488,21.1851667 C50.6247,19.7230833 53.06574,18.1239167 56.98056,18.1239167 C62.13858,18.1239167 64.39524,21.2318333 64.39524,25.0689167 L64.39524,40.7401667 L56.10486,40.7401667 Z" id="Fill-7" fill="#FFFFFF" mask="url(#mask-2)"></path>
                    <path d="M61.815474,48.1872917 L63.796614,42.110625 C64.716834,42.7964583 65.270814,42.9789583 66.559794,42.9789583 C68.079354,42.9789583 68.999574,41.8827083 68.999574,39.780625 L68.999574,18.673125 L77.290794,18.673125 L77.290794,39.780625 C77.290794,45.4472917 74.480154,49.6952083 68.032734,49.6952083 C64.671054,49.6952083 63.611814,49.2852083 61.815474,48.1872917" id="Fill-8" fill="#FFFFFF" mask="url(#mask-2)"></path>
                    <path d="M68.494062,9.63504167 C68.494062,7.07629167 70.566342,5.020875 73.145142,5.020875 C75.723942,5.020875 77.795802,7.07629167 77.795802,9.63504167 C77.795802,12.1937917 75.723942,14.250875 73.145142,14.250875 C70.566342,14.250875 68.494062,12.1937917 68.494062,9.63504167" id="Fill-9" fill="#FFFFFF" mask="url(#mask-2)"></path>
                    <path d="M96.448254,32.5167083 L96.448254,26.8967083 C95.665794,25.937125 94.099614,25.4342083 92.994594,25.4342083 C90.737934,25.4342083 88.848774,26.9412917 88.848774,29.6829583 C88.848774,32.424625 90.737934,34.0237917 92.994594,34.0237917 C94.099614,34.0237917 95.665794,33.4762917 96.448254,32.5167083 Z M96.448254,40.7400417 L96.448254,38.4104583 C94.560774,40.5112917 92.441874,41.2879583 90.185214,41.2879583 C84.797454,41.2879583 80.374854,37.268375 80.374854,29.6829583 C80.374854,22.3725417 84.705474,18.1237917 90.185214,18.1237917 C92.441874,18.1237917 94.653594,18.900875 96.403314,21.0029583 L96.403314,18.6729583 L104.739054,18.6729583 L104.739054,40.7400417 L96.448254,40.7400417 Z" id="Fill-10" fill="#FFFFFF" mask="url(#mask-2)"></path>
                    <polygon id="Fill-11" fill="#F6DA25" mask="url(#mask-2)" points="0.00042 8.28125 104.74632 8.28125 104.74632 0 0.00042 0"></polygon>
                    <polygon id="Fill-12" fill="#F6DA25" mask="url(#mask-2)" points="0 21.0808333 104.74716 21.0808333 104.74716 12.7995833 0 12.7995833"></polygon>
                </g>
            </g>
        </g>
    </g>
</svg>