<?xml version="1.0" encoding="UTF-8"?>
<svg width="40px" height="40px" viewBox="0 0 40 40" version="1.1" xmlns="http://www.w3.org/2000/svg" xmlns:xlink="http://www.w3.org/1999/xlink">
    <!-- Generator: Sketch 50.2 (55047) - http://www.bohemiancoding.com/sketch -->
    <title>youtube</title>
    <desc>Created with Sketch.</desc>
    <defs></defs>
    <g id="youtube" stroke="none" stroke-width="1" fill="none" fill-rule="evenodd">
        <path d="M20.0000001,40 C8.97177319,40 0,31.0281132 0,20.0002534 C0,8.97188684 8.97177319,0 20.0000001,0 C31.0282268,0 40,8.97188684 40,20.0002534 C40,31.0281132 31.0282268,40 20.0000001,40 Z M20.0000001,1.52031521 C9.80996301,1.52031521 1.52029595,9.81008729 1.52029595,20.0002534 C1.52029595,30.1899127 9.80996301,38.4796848 20.0000001,38.4796848 C30.1895302,38.4796848 38.4797041,30.1899127 38.4797041,20.0002534 C38.4797041,9.81008729 30.1895302,1.52031521 20.0000001,1.52031521 Z" id="Google+-Circle" fill="#FF0000" fill-rule="nonzero"></path>
        <g id="Youtube" transform="translate(11.282051, 14.358974)" fill-rule="nonzero">
            <path d="M16.0407617,1.84180728 C15.8523558,1.11680314 15.297191,0.545893301 14.5922509,0.352133995 C13.314739,0 8.19156601,0 8.19156601,0 C8.19156601,0 3.06839308,0 1.79078803,0.352133995 C1.08584793,0.545893301 0.530683157,1.11680314 0.342277138,1.84180728 C0,3.15579404 0,5.8974359 0,5.8974359 C0,5.8974359 0,8.63898263 0.342277138,9.95306451 C0.530683157,10.6780686 1.08584793,11.2489785 1.79078803,11.4428329 C3.06839308,11.7948718 8.19156601,11.7948718 8.19156601,11.7948718 C8.19156601,11.7948718 13.314739,11.7948718 14.5922509,11.4428329 C15.297191,11.2489785 15.8523558,10.6780686 16.0407617,9.95306451 C16.383132,8.63898263 16.383132,5.8974359 16.383132,5.8974359 C16.383132,5.8974359 16.383132,3.15579404 16.0407617,1.84180728" id="Fill-1" fill="#FF0000"></path>
            <polygon id="Fill-2" fill="#FFFFFF" points="6.65564738 8.71794872 6.65564738 3.58974359 10.7514304 6.15394413"></polygon>
        </g>
    </g>
</svg>