<?xml version="1.0" encoding="UTF-8"?>
<svg width="1241px" height="833px" viewBox="0 0 1241 833" version="1.1" xmlns="http://www.w3.org/2000/svg" xmlns:xlink="http://www.w3.org/1999/xlink">
    <!-- Generator: Sketch 50.2 (55047) - http://www.bohemiancoding.com/sketch -->
    <title>Rectangle 2</title>
    <desc>Created with Sketch.</desc>
    <defs>
        <linearGradient x1="100%" y1="89.1854136%" x2="-21.7043295%" y2="20.2281317%" id="linearGradient-1">
            <stop stop-color="#1CD87E" offset="0%"></stop>
            <stop stop-color="#49B07C" offset="100%"></stop>
        </linearGradient>
        <path d="M0,0 L1440,0 L1439.25,323.169408 C1389.22197,468.1919 1271.63199,524.466905 1086.48004,491.994423 C808.752114,443.2857 928.601025,815.304483 518.098974,815.304483 C244.43094,815.304483 71.7312822,856.536322 0,939 L0,0 Z" id="path-2"></path>
        <linearGradient x1="99.1544336%" y1="100%" x2="99.1544306%" y2="3.40475372%" id="linearGradient-4">
            <stop stop-color="#F8F8F8" offset="0%"></stop>
            <stop stop-color="#FFFFFF" offset="100%"></stop>
        </linearGradient>
    </defs>
    <g id="Page-1" stroke="none" stroke-width="1" fill="none" fill-rule="evenodd">
        <g id="Landing-page-Ninja-Fund">
            <g id="Group-21" transform="translate(-213.000000, -404.000000)">
                <g id="Rectangle-2" transform="translate(807.356395, 620.256439) rotate(-13.000000) translate(-807.356395, -620.256439) translate(87.356395, 150.756439)">
                    <mask id="mask-3" fill="white">
                        <use xlink:href="#path-2"></use>
                    </mask>
                    <use id="Mask" fill="url(#linearGradient-1)" style="mix-blend-mode: multiply;" xlink:href="#path-2"></use>
                    <path d="M-64.1908406,15.5202604 L1874.24322,15.5202604 L1873.23362,1326.58665 C1465.5389,1570.89263 1117.87382,1542.58562 830.238356,1241.66564 C542.602898,940.745659 244.459832,903.472874 -64.1908406,1129.84729 L-64.1908406,15.5202604 Z" fill="url(#linearGradient-4)" style="mix-blend-mode: multiply;" mask="url(#mask-3)" transform="translate(905.026188, 753.155301) scale(-1, -1) rotate(-35.000000) translate(-905.026188, -753.155301) "></path>
                </g>
            </g>
        </g>
    </g>
</svg>