<?xml version="1.0" encoding="UTF-8"?>
<svg width="40px" height="40px" viewBox="0 0 40 40" version="1.1" xmlns="http://www.w3.org/2000/svg" xmlns:xlink="http://www.w3.org/1999/xlink">
    <!-- Generator: Sketch 50.2 (55047) - http://www.bohemiancoding.com/sketch -->
    <title>telegram</title>
    <desc>Created with Sketch.</desc>
    <defs></defs>
    <g id="telegram" stroke="none" stroke-width="1" fill="none" fill-rule="evenodd">
        <path d="M20.2922545,39.4655 C9.4292397,39.4655 0.5918711,30.6135 0.5918711,19.733 C0.5918711,8.852 9.4292397,0 20.2922545,0 C31.1552694,0 39.992638,8.852 39.992638,19.733 C39.992638,30.6135 31.1552694,39.4655 20.2922545,39.4655 Z M20.2922545,1.5 C10.2548727,1.5 2.0893917,9.679 2.0893917,19.733 C2.0893917,29.7865 10.2548727,37.9655 20.2922545,37.9655 C30.3291372,37.9655 38.495117,29.7865 38.495117,19.733 C38.495117,9.679 30.3291372,1.5 20.2922545,1.5 Z" id="Google+-Circle" fill="#259DCF" fill-rule="nonzero"></path>
        <path d="M17,26 C16.51405,26 16.5966249,25.8145811 16.429025,25.3470105 L15,20.5944295 L26,14" id="Shape" fill="#37AEE2" fill-rule="nonzero"></path>
        <path d="M17,26 C17.4090909,26 17.5898409,25.8206126 17.8181818,25.6077534 L20,23.5735626 L17.2784545,22" id="Shape" fill="#2199CC" fill-rule="nonzero"></path>
        <path d="M16.2680863,22.2391066 L22.1976119,26.8093017 C22.8742473,27.1987833 23.3625994,26.9971289 23.5311421,26.1539407 L25.944763,14.2883689 C26.1918756,13.2548082 25.5671052,12.7860335 24.9197987,13.0926148 L10.7470556,18.7938146 C9.77963318,19.1986202 9.78527335,19.7616794 10.5707148,20.0125675 L14.2077601,21.1968222 L22.6279071,15.6550017 C23.0254036,15.403538 23.3902238,15.5387303 23.0907926,15.8159671" id="Shape" fill="#259DCF" fill-rule="nonzero"></path>
    </g>
</svg>