<?xml version="1.0" encoding="UTF-8"?>
<svg width="40px" height="40px" viewBox="0 0 40 40" version="1.1" xmlns="http://www.w3.org/2000/svg" xmlns:xlink="http://www.w3.org/1999/xlink">
    <!-- Generator: Sketch 50.2 (55047) - http://www.bohemiancoding.com/sketch -->
    <title>twitter</title>
    <desc>Created with Sketch.</desc>
    <defs></defs>
    <g id="twitter" stroke="none" stroke-width="1" fill="none" fill-rule="evenodd">
        <path d="M20.070496,39.9655 C9.20798,39.9655 0.370112,31.1135 0.370112,20.233 C0.370112,9.352 9.20798,0.5 20.070496,0.5 C30.933511,0.5 39.770879,9.352 39.770879,20.233 C39.770879,31.1135 30.933511,39.9655 20.070496,39.9655 Z M20.070496,2 C10.033613,2 1.867633,10.179 1.867633,20.233 C1.867633,30.2865 10.033613,38.4655 20.070496,38.4655 C30.107878,38.4655 38.273359,30.2865 38.273359,20.233 C38.273359,10.179 30.107878,2 20.070496,2 Z" id="Twitter-Circle" fill="#24A9E6" fill-rule="nonzero"></path>
        <path d="M28.533484,12.2885 C27.791712,12.7395 26.972069,13.0675 26.09602,13.243 C25.398175,12.478 24.400826,12 23.296655,12 C21.180159,12 19.462502,13.764 19.462502,15.9395 C19.462502,16.248 19.495448,16.548 19.561339,16.8365 C16.373617,16.672 13.547795,15.1055 11.654929,12.719 C11.324476,13.303 11.135788,13.9805 11.135788,14.7015 C11.135788,16.068 11.812668,17.274 12.842463,17.9805 C12.214502,17.9615 11.621983,17.7825 11.103841,17.489 L11.103841,17.5375 C11.103841,19.447 12.426152,21.04 14.182245,21.4005 C13.860777,21.493 13.521339,21.539 13.171418,21.539 C12.924327,21.539 12.683226,21.5155 12.449613,21.4695 C12.937805,23.034 14.353461,24.1735 16.032182,24.2035 C14.719855,25.261 13.065094,25.891 11.268569,25.891 C10.959081,25.891 10.653088,25.873 10.353583,25.837 C12.050774,26.953 14.067934,27.6055 16.233349,27.6055 C23.289167,27.6055 27.146281,21.6035 27.146281,16.397 C27.146281,16.2255 27.143286,16.0545 27.136797,15.8865 C27.886056,15.3305 28.536979,14.6375 29.049131,13.8475 C28.362268,14.1605 27.622493,14.3725 26.846777,14.4675 C27.638965,13.9805 28.246959,13.208 28.533484,12.2885" id="Twitter" fill="#24A9E6" fill-rule="nonzero"></path>
    </g>
</svg>